{
    "accessors" : [
        {
            "bufferView" : 0,
            "componentType" : 5123,
            "count" : 1008,
            "max" : [
                257
            ],
            "min" : [
                0
            ],
            "type" : "SCALAR"
        },
        {
            "bufferView" : 1,
            "componentType" : 5126,
            "count" : 258,
            "max" : [
                1.346156358718872,
                0.8513298034667969,
                0.11654733121395111
            ],
            "min" : [
                -1.106835126876831,
                -0.013526976108551025,
                -0.11666964739561081
            ],
            "type" : "VEC3"
        },
        {
            "bufferView" : 2,
            "componentType" : 5126,
            "count" : 258,
            "max" : [
                0.9998779296875,
                0.999359130859375,
                0.99993896484375
            ],
            "min" : [
                -0.999908447265625,
                -0.8727988600730896,
                -0.999969482421875
            ],
            "type" : "VEC3"
        },
        {
            "bufferView" : 3,
            "componentType" : 5126,
            "count" : 258,
            "max" : [
                0.999954104423523,
                0.9996395707130432,
                0.9999753832817078,
                1.0
            ],
            "min" : [
                -0.9998361468315125,
                -0.999381959438324,
                -0.9998537302017212,
                1.0
            ],
            "type" : "VEC4"
        },
        {
            "bufferView" : 4,
            "componentType" : 5126,
            "count" : 258,
            "max" : [
                0.9867401123046875,
                0.9938632249832153
            ],
            "min" : [
                0.013994693756103516,
                0.009372293949127197
            ],
            "type" : "VEC2"
        },
        {
            "bufferView" : 5,
            "componentType" : 5123,
            "count" : 654,
            "max" : [
                165
            ],
            "min" : [
                0
            ],
            "type" : "SCALAR"
        },
        {
            "bufferView" : 6,
            "componentType" : 5126,
            "count" : 166,
            "max" : [
                0.679974377155304,
                0.8747697472572327,
                0.09885361790657043
            ],
            "min" : [
                -0.6918972730636597,
                -0.021640943363308907,
                -0.12592878937721252
            ],
            "type" : "VEC3"
        },
        {
            "bufferView" : 7,
            "componentType" : 5126,
            "count" : 166,
            "max" : [
                0.999847412109375,
                0.9949644207954407,
                0.999969482421875
            ],
            "min" : [
                -0.999786376953125,
                -0.8776207566261292,
                -1.0
            ],
            "type" : "VEC3"
        },
        {
            "bufferView" : 8,
            "componentType" : 5126,
            "count" : 166,
            "max" : [
                1.0,
                0.999192476272583,
                0.9999959468841553,
                1.0
            ],
            "min" : [
                -0.9989306926727295,
                -0.9989987015724182,
                -0.9999955296516418,
                -1.0
            ],
            "type" : "VEC4"
        },
        {
            "bufferView" : 9,
            "componentType" : 5126,
            "count" : 166,
            "max" : [
                0.9410317540168762,
                1.0
            ],
            "min" : [
                0.0,
                0.009372293949127197
            ],
            "type" : "VEC2"
        }
    ],
    "asset" : {
        "generator" : "Khronos Blender glTF 2.0 exporter",
        "version" : "2.0"
    },
    "bufferViews" : [
        {
            "buffer" : 0,
            "byteLength" : 2016,
            "byteOffset" : 0,
            "target" : 34963
        },
        {
            "buffer" : 0,
            "byteLength" : 3096,
            "byteOffset" : 2016,
            "target" : 34962
        },
        {
            "buffer" : 0,
            "byteLength" : 3096,
            "byteOffset" : 5112,
            "target" : 34962
        },
        {
            "buffer" : 0,
            "byteLength" : 4128,
            "byteOffset" : 8208,
            "target" : 34962
        },
        {
            "buffer" : 0,
            "byteLength" : 2064,
            "byteOffset" : 12336,
            "target" : 34962
        },
        {
            "buffer" : 0,
            "byteLength" : 1308,
            "byteOffset" : 14400,
            "target" : 34963
        },
        {
            "buffer" : 0,
            "byteLength" : 1992,
            "byteOffset" : 15708,
            "target" : 34962
        },
        {
            "buffer" : 0,
            "byteLength" : 1992,
            "byteOffset" : 17700,
            "target" : 34962
        },
        {
            "buffer" : 0,
            "byteLength" : 2656,
            "byteOffset" : 19692,
            "target" : 34962
        },
        {
            "buffer" : 0,
            "byteLength" : 1328,
            "byteOffset" : 22348,
            "target" : 34962
        }
    ],
    "buffers" : [
        {
            "byteLength" : 23676,
            "uri" : "fences.bin"
        }
    ],
    "images" : [
        {
            "name" : "prop_fence1_col",
            "uri" : "prop_fence1_col.jpg"
        },
        {
            "name" : "prop_fence1_nor",
            "uri" : "prop_fence1_nor.jpg"
        }
    ],
    "materials" : [
        {
            "name" : "fence",
            "normalTexture" : {
                "index" : 1
            },
            "pbrMetallicRoughness" : {
                "baseColorTexture" : {
                    "index" : 0
                },
                "metallicFactor" : 0.0
            }
        }
    ],
    "meshes" : [
        {
            "name" : "fence_long",
            "primitives" : [
                {
                    "attributes" : {
                        "NORMAL" : 2,
                        "POSITION" : 1,
                        "TANGENT" : 3,
                        "TEXCOORD_0" : 4
                    },
                    "indices" : 0,
                    "material" : 0
                }
            ]
        },
        {
            "name" : "fence_short",
            "primitives" : [
                {
                    "attributes" : {
                        "NORMAL" : 7,
                        "POSITION" : 6,
                        "TANGENT" : 8,
                        "TEXCOORD_0" : 9
                    },
                    "indices" : 5,
                    "material" : 0
                }
            ]
        }
    ],
    "nodes" : [
        {
            "name" : "Camera",
            "rotation" : [
                0.530198872089386,
                0.30196264386177063,
                -0.2049282193183899,
                0.7653183341026306
            ],
            "translation" : [
                29.240907669067383,
                18.59575653076172,
                27.4008731842041
            ]
        },
        {
            "mesh" : 0,
            "name" : "fence_long"
        },
        {
            "mesh" : 0,
            "name" : "fence_long_nophys"
        },
        {
            "mesh" : 1,
            "name" : "fence_short"
        },
        {
            "mesh" : 1,
            "name" : "fence_short_nophys"
        },
        {
            "name" : "Lamp",
            "rotation" : [
                0.16332276165485382,
                -0.3867188096046448,
                -0.3531150221824646,
                0.8361124396324158
            ],
            "translation" : [
                42.39864730834961,
                9.47838020324707,
                23.67829132080078
            ]
        },
        {
            "name" : "Lamp.001",
            "rotation" : [
                0.15026278793811798,
                0.2712379992008209,
                0.5947680473327637,
                0.7416886687278748
            ],
            "translation" : [
                -16.81787109375,
                -2.898538589477539,
                11.59782600402832
            ]
        }
    ],
    "samplers" : [
        {}
    ],
    "scene" : 0,
    "scenes" : [
        {
            "name" : "Scene",
            "nodes" : [
                4,
                2,
                6,
                1,
                3,
                5,
                0
            ]
        }
    ],
    "textures" : [
        {
            "sampler" : 0,
            "source" : 0
        },
        {
            "sampler" : 0,
            "source" : 1
        }
    ]
}
